<?xml version="1.0" encoding="UTF-8"?> <svg xmlns="http://www.w3.org/2000/svg" viewBox="0 0 1286.27 839.77"><g id="Layer_2" data-name="Layer 2"><g id="Layer_1-2" data-name="Layer 1"><g id="logo"><polygon points="1196.18 37.65 969.56 37.65 735.41 303.98 782.87 37.2 563.94 37.2 524.18 260.8 317.33 260.8 357.08 37.2 138.17 37.2 20.42 699.72 239.32 699.72 284.96 442.99 491.81 442.99 446.19 699.72 665.1 699.72 718.29 400.53 848.17 699.72 1076.55 699.72 912.95 350.68 1196.18 37.65" style="fill:#0054a5;fill-rule:evenodd"></polygon><polygon points="1086.94 743.21 16.91 743.21 20.18 729.66 1089.86 729.66 1086.94 743.21" style="fill:#f6921e;fill-rule:evenodd"></polygon><polygon points="17.82 838.07 0 838.07 13.51 774.47 31.33 774.47 17.82 838.07" style="fill:#0054a5;fill-rule:evenodd"></polygon><polygon points="166.55 774.47 178.93 774.47 165.43 838.07 152.15 838.07 135.84 792.69 135.67 792.69 126.02 838.07 113.62 838.07 127.16 774.47 141.13 774.47 156.98 818.74 157.14 818.74 166.55 774.47" style="fill:#0054a5;fill-rule:evenodd"></polygon><path d="M316.42,795.3c-.26-3.81-.78-11-11.77-11-6.36,0-16.65,4.26-20.47,22.2-2.43,11.46-.12,21.71,11.15,21.71,7.34,0,13.36-4.14,16.61-12h13.28c-5.58,13.84-16.66,23.47-32.61,23.47-16.91,0-26.63-11.42-22-33.4,4.72-22.2,20-33.52,36.38-33.52,19,0,23.94,13.08,22.67,22.49Z" style="fill:#0054a5;fill-rule:evenodd"></path><path d="M449,828.47c7.17,0,18.21-4.4,22-22.2S465.65,784,458.48,784s-18.23,4.46-22,22.27S441.82,828.47,449,828.47Zm11.83-55.62c8.4,0,29.78,3.61,23.42,33.46s-29.22,33.46-37.65,33.46-29.78-3.61-23.43-33.46S452.43,772.85,460.85,772.85Z" style="fill:#0054a5;fill-rule:evenodd"></path><polygon points="600.2 838.07 586.88 838.07 598.03 785.73 578.81 785.73 581.2 774.47 632.91 774.47 630.55 785.73 611.31 785.73 600.2 838.07" style="fill:#0054a5;fill-rule:evenodd"></polygon><polygon points="773.75 785.73 739.96 785.73 737.13 799.11 768.15 799.11 765.74 810.3 734.75 810.3 731.27 826.81 766.49 826.81 764.12 838.07 715.84 838.07 729.35 774.47 776.13 774.47 773.75 785.73" style="fill:#0054a5;fill-rule:evenodd"></polygon><path d="M913.16,795.3c-.23-3.81-.72-11-11.72-11-6.38,0-16.67,4.26-20.48,22.2-2.44,11.46-.09,21.71,11.14,21.71,7.35,0,13.37-4.14,16.63-12H922c-5.6,13.84-16.7,23.47-32.62,23.47-16.92,0-26.62-11.42-21.93-33.4,4.68-22.2,20-33.52,36.35-33.52,19,0,24,13.08,22.66,22.49Z" style="fill:#0054a5;fill-rule:evenodd"></path><polygon points="1034.88 809.52 1028.82 838.07 1015.54 838.07 1029.05 774.47 1042.33 774.47 1037.22 798.55 1061.99 798.55 1067.17 774.47 1080.42 774.47 1066.91 838.07 1053.63 838.07 1059.68 809.52 1034.88 809.52" style="fill:#0054a5;fill-rule:evenodd"></polygon><path d="M46.67,736.43a16.18,16.18,0,1,1-16.19-16.17h0a16.13,16.13,0,0,1,16.19,16.07Z" style="fill:#0054a5;fill-rule:evenodd"></path><path d="M1247.87,35.37A26,26,0,0,0,1252,35a9.12,9.12,0,0,0,3.42-1.26,6.83,6.83,0,0,0,2.34-2.55,8.52,8.52,0,0,0,.89-4.15,8.41,8.41,0,0,0-2-5.72q-2-2.25-6.33-2.25h-15.41V35.37ZM1228.75,13.9h21.93c4.4,0,7.85,1.1,10.38,3.29a11.2,11.2,0,0,1,3.79,8.91,14.17,14.17,0,0,1-1.93,7.44,9.94,9.94,0,0,1-6.17,4.38v.13a8.63,8.63,0,0,1,3.31,1.3,8.2,8.2,0,0,1,2,2.19,9.68,9.68,0,0,1,1.12,2.84c.21,1,.38,2.13.51,3.26s.18,2.31.23,3.49.17,2.36.32,3.47a19.28,19.28,0,0,0,.73,3.2,7.7,7.7,0,0,0,1.46,2.7h-6.92a4,4,0,0,1-.85-1.75,18.62,18.62,0,0,1-.29-2.35c-.07-.92-.11-2-.17-3.18s-.17-2.59-.38-4.21c-.19-1.13-.4-2.2-.64-3.23a7.8,7.8,0,0,0-1.26-2.67,6.07,6.07,0,0,0-2.25-1.83,8.2,8.2,0,0,0-3.62-.69H1234.9V60.5h-6.2Z" style="fill:#0054a5;fill-rule:evenodd"></path><path d="M1247,4.93a34.31,34.31,0,1,0,34.31,34.31A34.31,34.31,0,0,0,1247,4.93Zm0,73.55a39.24,39.24,0,1,1,39.24-39.24h0A39.29,39.29,0,0,1,1247,78.48Z" style="fill:#0054a5;fill-rule:evenodd"></path></g></g></g></svg> 